<?xml version="1.0" encoding="UTF-8"?>
<svg version="1.1" viewBox="0 0 1440 1440" width="1280" height="1280" xmlns="http://www.w3.org/2000/svg">
<path transform="translate(288,183)" d="m0 0h20l15 2 17 6 13 7 12 9 15 14 9 10 13 17 11 17 1 2 7-1 40-10 65-15 27-5 27-4 41-4 51-4 33-1h20l34 1 26 2 46 6 38 7 27 7 27 9 28 13 23 11 5 3h3l5-12 9-21 7-11 19-19 8-7 15-10 15-6 13-2h10l14 3 16 6 13 10 10 11 11 18 6 15 2 9v9l-4 17-6 15-8 14-8 12-11 16-13 16-8 11-5 7 1 5 10 21 11 30 5 8 10 7 10 6 10 9 13 14 11 14 10 15 10 19 9 24 6 18 3 13 4 29v21l-5 35-5 20-8 18-13 22-14 20-10 12-3 6-1 16 5 52 3 32 7 85 2 37 1 43 4 62 5 68 2 76 1 25v59l-1 20-1 95-1 1h-954v-11l3-31 2-20v-82l1-122 1-51 3-54 1-103 2-61-1-43-1-79-1-24-4-32-4-15-14-28-7-19-6-22-4-25v-33l4-24 8-27 6-15 12-23 7-10 10-13 12-15 8-15 13-36 6-15 5-11 4-12v-8l-6-12-12-15-10-13-12-17-8-14-5-14-3-11-2-14v-16l4-18 6-10 3-4h2l2-4 10-8 10-5 6-2z" fill="#78C7D8"/>
<path transform="translate(288,183)" d="m0 0h20l15 2 17 6 13 7 12 9 15 14 9 10 13 17 11 17 1 2 7-1 40-10 65-15 27-5 27-4 41-4 51-4 33-1h20l34 1 26 2 46 6 38 7 27 7 27 9 28 13 23 11 5 3h3l5-12 9-21 7-11 19-19 8-7 15-10 15-6 13-2h10l14 3 16 6 13 10 10 11 11 18 6 15 2 9v9l-4 17-6 15-8 14-8 12-11 16-13 16-8 11-5 7 1 5 10 21 11 30 5 8 10 7 10 6 10 9 13 14 11 14 10 15 10 19 9 24 6 18 3 13 4 29v21l-5 35-5 20-8 18-13 22-14 20-10 12-3 6-1 16 5 52 3 32 7 85 2 37 1 43 4 62 5 68 2 76 1 25v59l-1 20-1 95-1 1h-14l1-29 2-103v-46l-2-68-3-42-3-32-2-37-2-26 1-34v-40l-2-32-5-51-6-63-6-49v-7l-30 12-25 8-25 5-25 3-11 1h-31l-27-4-21-5-19-7-16-8-14-9-13-11-13-13-9-14-14-27-10-22-8-22-4-16-3-22v-26l3-25 4-24 4-15 7-20 8-16 8-12 12-17 8-10 11-11 13-9 17-9 15-5 26-7h46l38 5 28 5 27 8-11-32-10-21-16-24-9-11-7-7v-2l-4-2-9-9-14-11-21-14-22-12-21-12-23-11-28-10-26-8-25-6-37-6-33-4-41-3h-52l-87 7-36 4-28 5-43 9-56 13-29 10-17 9-14 10-19 12-10 7-9 9-7 8-12 14-10 14-8 17-8 20-5 12-8 29 1 2 23-6 25-7 15-3 27-3h31l29 4 25 5 20 7 23 10 12 7 14 12 12 13 13 17 11 18 11 21 8 19 6 18 5 23 2 16v38l-5 25-8 21-10 19-12 18-11 13-10 9-10 7-26 15-16 9-15 6-16 5-13 2-12 1-35 1-41-5-19-6-12-5-48-32-18-13-7-5h-1l2 45 2 118v37l-1 23-2 93-2 55-2 51v228l-3 48h-17v-11l3-31 2-20v-82l1-122 1-51 3-54 1-103 2-61-1-43-1-79-1-24-4-32-4-15-14-28-7-19-6-22-4-25v-33l4-24 8-27 6-15 12-23 7-10 10-13 12-15 8-15 13-36 6-15 5-11 4-12v-8l-6-12-12-15-10-13-12-17-8-14-5-14-3-11-2-14v-16l4-18 6-10 3-4h2l2-4 10-8 10-5 6-2z" fill="#050203"/>
<path transform="translate(724,913)" d="m0 0h11l11 8 9 9 9 11 12 15 13 17 11 15 14 20 12 20 9 16 14 26 14 25 8 12 8 11 4 5 10 3 48 8 28 6 42 12 11 4 6 7 2 6-1 6-1 3-7-1-15-8-30-10-22-6-35-7-32-5-21-2-40-2-10 4-8 9-5 10-1 4v13l4 10 11 12 8 7 14 10 18 13 17 11 15 9 22 13 31 14 21 9 17 7 13 5 5 4 5 12-1 5-2 3-5-1-16-9-15-8-26-12 1 4 15 26 11 18 7 15-1 7-7 8-15 6-31 10-33 10-23 5-35 5-12 1h-54l-61-8-36-6-43-10-26-7-47-13-28-10-19-8-6-5-1-2v-7l11-23 10-19 6-13-32 14-36 18-16 10-9 7-4 1-1-5v-9l3-8 5-5 19-10 35-15 32-14 30-16 23-13 18-10 15-10 11-9 14-12 9-9 6-8 1-10-3-7-5-6-10-3-11-1h-46l-34 4-36 5-27 6-33 9-23 7h-4l-2-5v-7l4-5 11-4 48-12 28-6 46-5 22-2 28-2 10-18 8-15 11-23 12-26 10-23 9-20 17-37 10-18 10-14 9-10 8-6 9-4z" fill="#040203"/>
<path transform="translate(981,439)" d="m0 0h16l18 1 41 7 24 6 19 7 26 13 18 12 12 11 9 12 12 19 8 15 8 21 5 18 3 15 2 22v19l-3 25-4 17-10 25-11 17-8 12-8 11-8 9-10 7-17 10-24 9-23 6-14 3-19 3-25 2h-28l-18-3-20-5-27-9-15-8-14-12-10-11-11-17-7-12-11-23-10-24-5-19-2-10v-39l3-15 1-22 5-20 5-15 9-17 11-16 10-14 6-7h2l1-3 11-8 13-8 10-5 21-7 13-3 3-1z" fill="#FEFEFD"/>
<path transform="translate(371,444)" d="m0 0h31l33 4 21 5 34 13 13 7 13 12 9 9 8 10 10 15 13 23 10 22 6 17 5 21 3 16v39l-4 21-9 22-8 16-8 12h-2l-2 5-12 15-10 7-17 10-25 14-10 5-15 5-8 2-9 1h-49l-30-5-16-5-26-14-15-10-18-13-16-12-15-14-16-15-6-10-6-12-6-18-7-26-2-10-1-10v-17l3-27 4-19 5-15 8-19 5-10 14-22 9-11 9-9 12-5 29-8 32-8 19-3z" fill="#FEFEFD"/>
<path transform="translate(718,934)" d="m0 0h5l7 6 10 1 4 2 4 8 3 11 6 7 14 6 1 2 2 15 3 6 15 8 7 7 2 10 2 12 3 5v2l4 2 9 7 6 7 2 10v7l3 7 9 10 4 8 2 16v5l-4 1-1-1-1-14-5-13-8-10-8-7-12-6-3-1h-16l-10 4-9 8-7 14-3 10-1 7v14l3 12 6 11 4 5 15 11 2 3 1 11 5 12 4 6 3 3-1 4-11 9-4 4-3-1-2-15-6-10-6-4-10-1-10 3-8 6-7 9-4 11 1 9 5 8 6 5 3 1h8l15-5 7-5h2l-1 6-4 15-1 8v19l3 15 5 10 10 13 9 9 8 7 7 8-1 5-5 2-10-4-15-7h-11l-14 5-19 1-6 3-9-1-9-3h-8l-17 3-13 1-9-5-3-2-29-1-11-3-15-12-7-1-12 1-5-3-11-8-2-1-17-1-3-5-3-12-3-4v-6l10-9 4-12 4-6 28-16 19-12 14-10 13-11 12-12 7-10 4-7 3-9v-7l-3-8 1-4 14-14 7-8 8-11 5-11 2-8v-10l-2-11-6-12-9-10-11-7-5-3 4-8 3-19 14-1 5-3 5-6 2-6v-12l-5-13-2-6 10-6 6-4 2-3 3-15 4-5z" fill="#F4CF37"/>
<path transform="translate(730,675)" d="m0 0h30l19 3 6 4 6 7 1 3v11l-4 8-1 3 9 7 10 8 12 11 10 13 7 14 4 17v21l-4 11-8 6-9 4-14 4h-19l-17-4-2-1-5 26-6 18-9 14-9 9-11 7h-9l-1-1h-17l-7-4-7-7-7-11-5-12-10-35-2-6-15 1h-21l-10-3-8-5-6-9-3-8-1-8v-10l3-17 5-13 8-14 9-10 5-5 10-7 11-5v-17l3-6 6-5 11-4 8-1z" fill="#030203"/>
<path transform="translate(826,1136)" d="m0 0 40 2 27 3 37 6 36 8 35 11 19 9 7 3-1 4h-2l-1 3-2 36-4 29-8 31-7 20-4 2-5-5-16-6-25-11-26-11-16-8-18-10-23-14-16-11-18-13-16-12-11-11-6-10-1-4v-13l4-11 7-9 6-5z" fill="#CF9757"/>
<path transform="translate(569,1144)" d="m0 0h46l15 2 7 3 6 7 2 6-1 10-9 11-10 10-11 9-12 10-21 13-27 15-28 15-16 8-29 13-31 13-21 11-4 5-1-2 2-5-1-121-3-2v-2l35-10 32-8 23-4 46-6z" fill="#CF9757"/>
<path transform="translate(654,726)" d="m0 0 7 1 21 10 23 9 4 1h9l15-5 23-11 11-4 10 1 10 5 11 9 10 10 8 13 4 10 1 5v20l-3 9-6 5-7 2h-19l-25-8-21-6-11-2h-23l-36 4-18 3-10 1h-11l-9-3-5-5-3-7-1-5 1-14 6-18 6-11 7-8 13-8z" fill="#CF9757"/>
<path transform="translate(293,198)" d="m0 0h17l12 2 16 6 13 8 11 9 11 11 9 11 11 14 7 11v4l-14 7-21 14-5 1-5-6-4-12-1-5v-11l2-9v-6l-1-2-5 1-5 4-5 9-3 8-6-2h-12l-9 6-4 5 1 2h17l10 3 7 6 4 8 2 5v9l-11 12-7 7-14 16-3 1-5-3-8-8-13-17-12-17-10-15-4-10-2-8-1-9v-17l2-12 6-12 11-11 12-6z" fill="#78C7D8"/>
<path transform="translate(1073,210)" d="m0 0h9l15 2 11 4 10 8 10 13 8 16 4 13v9l-4 16-8 16-7 11-10 13-12 15-12 16-4 5-3-1-6-9-12-14-13-13 1-5 11-13 8-8 10-6 16-6 10-4h2l-1-7-3-3-3-1h-7l-16 4-1-1-3-19-3-8-2-2-9 1-1 4 1 14v15l-4 9-12 13-8 9-4-2-16-10-15-10-2-4 3-14 5-13 7-11 9-10 9-9 8-7 10-8 10-5z" fill="#78C7D8"/>
<path transform="translate(529,1308)" d="m0 0 6 1 9 7 19 10 21 7 48 13 30 5 54 6 25 2h37l35-2 26-4 40-8 48-10 5-1h7l5 5 2 5v6l-3 5-14 7-34 11-21 6-20 4-26 3-30 1-45-1-56-6-33-5-31-7-71-19-23-8-14-7-4-4 1-6 5-12z" fill="#CF9757"/>
<path transform="translate(916,580)" d="m0 0h11l16 4 15 8 8 8 6 9 4 11v31l-5 15-8 12-6 7-10 7-8 4-9 3-11 1-18-5-9-6-10-9-8-9-4-11-1-8v-15l2-13 5-15 7-10 9-8 12-7z" fill="#030203"/>
<path transform="translate(646,1208)" d="m0 0h22l9 4 11 7 10 9 8 13 4 13 1 6v9l-5 16-6 11-10 11-12 9-9 4-7 1h-25l-10-3-10-5-10-9-6-11-2-6-1-7v-16l4-13 9-16 9-10 10-9 10-6z" fill="#8D1A17"/>
<path transform="translate(804,1208)" d="m0 0 5 2 8 7 3 5 9 5 6 6v12l-1 2-7 1 1 3 4 2 6 1 3-11 2-4 5 1 5 4 2 13 7 8 16 13 3 3v2l4-1 2-5 1-7 3-1 5 5v12l-8 24-4 6-4 4-7 8-8 7-13 5h-12l-7-2-11-2-17-9-10-11-7-11-9-14-4-13-1-5v-10l4-17 8-19 7-10z" fill="#A5251C"/>
<path transform="translate(484,573)" d="m0 0h20l12 5 12 9 6 5 9 13 5 13v24l-5 14-7 11h-2l-2 4-9 8-13 5-8 1h-12l-12-2-12-5-9-7-6-9-6-12-3-14v-13l4-16 7-14 4-5 12-9 8-4z" fill="#030203"/>
<path transform="translate(654,1054)" d="m0 0 9 2 8 4 5 5 7 8 4 10 1 8v9l-1 9-10 15-7 6-5 5-5 4-4 2-6-1-8-5-11-3-14-2 1-5 2-6h2l1-5 10-23 8-10 2-6 7-2h-6l2-5 4-1-1-3 1-6h2z" fill="#A5251C"/>
<path transform="translate(646,1208)" d="m0 0h22l9 4 11 7 10 9 8 13 4 13 1 6v9l-5 16-6 11-10 11-12 9-9 4-7 1h-25l-10-3-10-5-10-9-6-11-2-6-1-7v-16l4-13 9-16 9-10 10-9 10-6zm13 10-11 2-10 4-10 9-9 13-6 14-1 6v11l2 9 4 8 2 3h2v2l8 5 13 4h11l11-2 13-5 8-6 6-7 7-12 3-9v-16l-5-13-6-8-10-7-11-4z" fill="#060203"/>
<path transform="translate(791,1074)" d="m0 0h8l11 4 10 7v2l4 2 6 5 2 4v23l-1 1h-6l-2-10-1-3-4-1-2 14 2 2-10 3-6 5-9 12-6 13-5-2-6-5-9-12-2-5v-18l8-25 4-7 7-6z" fill="#8D1A17"/>
<path transform="translate(757,1186)" d="m0 0 10 1 7 5 6 10 2 15 4-2 11-10 5 2 2 2-11 9-7 11-5 12-4 12-3 8v24l3 3 3 8 7 10 7 11 3 4v2l-4-1-9-9-10-14-4-10-2-12v-19l3-16 4-13-9 6-15 5h-8l-6-3-7-8-3-9 1-7 4-9 6-8 7-6 7-3z" fill="#060203"/>
<path transform="translate(690,1132)" d="m0 0h16l9 4 7 8 4 10v13l-7 14-5 6-8 6h-5l-2-12v-2l-8 7-6 5-4-1-8-15-1-7 10-11 6-8-5-9-2-4z" fill="#070203"/>
<path transform="translate(843,1239)" d="m0 0 5 1 5 4 2 13 7 8 16 13 2 2-1 9-7 12-4-1-9-12-9-8-6-1-9 6-11 9-8 6h-6l-3-4 1-5 4-4h2v-2l4-2 8-8 5-6-2-4-9-6-17-6v-5l10 1 20 8 5-1 4-16z" fill="#A5251C"/>
<path transform="translate(844,1278)" d="m0 0 6 1 12 11 7 10 3 1 2-5 5-10 1-5 1 2 4 1-6 14-6 8-6 7-9 6-8 4h-12l-11-4-11-7-10-9 1-3h7l11-8 15-12z" fill="#230509"/>
<path transform="translate(816,1217)" d="m0 0 4 5 9 5 6 6v12l-1 2-7 1 1 3 9 3v2l-7-1-23-9-4 1v7l16 7 10 5v5l-6 5-10 8-4 2v2l-4 1v8l-3 1-6-8-4-13 1-25 5-12 7-12 6-5 3-3h2z" fill="#240509"/>
<path transform="translate(767 1e3)" d="m0 0h12l9 6 4 5v4l-4 3 1 7 8 11-1 9-5 7-5-2-13-11-3-3-4-1-2 10-4 4-5-2-6-9-3-10v-7l5-10 5-5 5-4z" fill="#090204"/>
<path transform="translate(708,1017)" d="m0 0h11l6 4 5 6 3 7 1 9-4 9-5 6-9 3-10-2-6-4-6-9-2-6v-8l4-8 9-6z" fill="#060203"/>
<path transform="translate(703,814)" d="m0 0h5l1 1v14l-2 40-1 7-4 2-5-5-7-14-7-20-3-10v-11l6-2z" fill="#F8F9F4"/>
<path transform="translate(787,1069)" d="m0 0h16l12 5 9 7 10 11 5 11-1 4v-3h-2l-1-2-1 3-1 16h-1l-1-23-4-6-7-5-5-5-12-6-4-1h-8l-10 5-6 7-8 24-1 4v18l4 8 7 9 8 6v2h-3v-2l-5-2-8-6-6-9v-2h-2l-4-10h-1v-14l3-14 6-14 9-10 10-5z" fill="#200508"/>
<path transform="translate(727,816)" d="m0 0h14l7 3v9l-5 25-6 10-11 11h-3v-21l1-20 2-15z" fill="#F7F8F2"/>
<path transform="translate(671,1081)" d="m0 0 3 4 1 5v7l-3 7-7 8-8 7-10 9h-12l-14-2-2-1 1-6 1 2 17-1 2-1 1-19 2-5 13-4 11-2h5l-1-2z" fill="#230509"/>
<path transform="translate(659,1177)" d="m0 0 1 2-5 9-1 4h-2l-1 6-1 1v5l17 2 1 2-22 1-10 4-13 10-9 9-9 15-4 9h-2l2-11-4-4-7 1-1 2-7 3-15 8-5 4-4 13-4 5h-2l-1 5-2 6 4 7 2 7 6 2 10 3 3 3-4-1-17-1-3-5-3-12-3-4v-6l10-9 4-12 4-6 28-16 19-12 14-10 13-11 12-12 7-10z" fill="#F5D86A"/>
<path transform="translate(844,1287)" d="m0 0 6 1 9 7 5 8v5l-7 7-5 2h-15l-12-4-5-4 1-5 11-7 10-9z" fill="#F7DB6B"/>
<path transform="translate(503,595)" d="m0 0h9l9 3 7 8v10l-7 7-3 1h-9l-7-4-5-5-3-5 1-9 5-5z" fill="#F9F9F3"/>
<path transform="translate(660,1074)" d="m0 0 5 1 4 8v5l-23 5-4 2-1 3-1 22-2 1h-17l3-9 9-21 10-8 16-8z" fill="#A5251C"/>
<path transform="translate(933,600)" d="m0 0h11l8 5 4 6v11l-4 5-4 2-10-1-10-5-5-5v-7l5-8z" fill="#F9FAF5"/>
<path transform="translate(902,1285)" d="m0 0 4 2 6 13 1 9-5 7-4 10-1 1h-9l-9-3 2-5 11-22z" fill="#F3D467"/>
<path transform="translate(774,998)" d="m0 0 4 1 14 7 7 7 2 10 2 12 3 5v2l4 2 9 7v3l-6-5-5-2-3-4v-2h-5-3l-8-10-2-5 1-5 4-2-2-5-4-5-7-4h-12l-9 4-5 5-4 6-1-4v-2l8-7 9-6z" fill="#F4D869"/>
<path transform="translate(650,1058)" d="m0 0 7 2 9 7 6 7 4 11 1 10-2 6-1-4v-7l-2-7v6l-20 4-9 2-1 5-1 19h-1v-21l3-5 20-5h6l-3-10-2-3-5 1-16 8-8 6 2-4 4-5 2-6 7-2h-6l2-5 4-1-1-3z" fill="#8D1A17"/>
<path transform="translate(698,1138)" d="m0 0 10 2 5 4 4 7 1 4v10l-5 10-4 2-2-7-6-16-6-10-2-5z" fill="#F7DE74"/>
<path transform="translate(822,1223)" d="m0 0 9 6 4 4v12l-1 2-8-1-20-7 2-5 9-8z" fill="#F6D96A"/>
<path transform="translate(609,1203)" d="m0 0h2v2l-15 11-22 13-48 26-16 8-29 13-31 13-21 11-4 5-1-2 2-5 24-12 26-11 37-16 23-12 22-12 23-13 11-7 12-8z" fill="#EAD472"/>
<path transform="translate(687,1084)" d="m0 0h1l2 8 2 10-1 5h2l-2 6-7 11-8 8-7 8-6 5-10-3 4-3 7-4 3-3h2l2-4 4-4h2l2-5 5-6 2-4 1-9z" fill="#230509"/>
<path transform="translate(842,1294)" d="m0 0 9 2 5 5v8l-4 3-10 1-8-3-2-3 1-6 4-2 2-4z" fill="#F5D036"/>
<path transform="translate(800,1262)" d="m0 0 11 2 9 4 1 4-7 7-9 5-4-1-1-2-1-11z" fill="#F6D968"/>
<path transform="translate(841,1243)" d="m0 0 1 3-3 10-2 2-6-1-18-7-10-2v5l12 3 12 6 5 5-2 5-7 8-4 1-2 4h-3v2l-6 5 1 6 5 2v1h-7l-2 2-4-4 1-2h3v-8l4-1v-2l11-9 8-6 1-5-6-2-12-5-9-5v-7l2-2 6 1 22 9 5 1 3-11z" fill="#8D1A17"/>
<path transform="translate(775,1254)" d="m0 0h1l-1 9v10l4 16 7 12 7 10 6 8 6 7 17 9 11 2v1l-12 2-9-5h-2l-1 2-14-14h2l-6-9-9-14-4-5-3-8-2-2v-24z" fill="#210509"/>
<path transform="translate(797,1067)" d="m0 0 10 1 11 4 7 1v2h2l3 7 9 10 4 8 2 16v5l-4 1-1-1-1-14-5-13-8-10-8-7-12-6-3-1-14-1v-1z" fill="#EBC765"/>
<path transform="translate(654,1054)" d="m0 0 9 2 8 4 5 5 7 8 4 10 1 8v9l-1 9-10 15-7 6-5 5-5 4-4 2-4-1 5-3 4-1 2-4h2l2-4 7-7 6-11h2l2-9 1-2v-12l-3-9-3-3-4-8-8-7-9-3-5-1z" fill="#8D1A17"/>
<path transform="translate(662,1096)" d="m0 0h7l-1 6-6 7-10 7-4 1-1-5 1-13 6-2z" fill="#F7DB6B"/>
<path transform="translate(612,1277)" d="m0 0h1l2 9 4 8 1 3h2v2l4 2 12 5 7 1h9l11-2 4 1-9 4-6 1h-22l-10-6v-2l-4-2-6-9-1-3v-8z" fill="#210509"/>
<path transform="translate(768,1012)" d="m0 0h10l1 3-5 5-8 7-7 8h-3v-10l5-8 5-4z" fill="#F3F2E1"/>
<path transform="translate(860,1249)" d="m0 0 5 2 14 10 1 2v8l-5 1-15-12z" fill="#F4D669"/>
<path transform="translate(900,1298)" d="m0 0 4 2v2h3l3 5-4 8-1 4h-9l-2-6-4 2 2-6 5-10 2 1z" fill="#F3CE39"/>
<path transform="translate(796,1254)" d="m0 0 4 1 1 7-1 10 1 9 2 5-1 2-5 1-3-4-2-8v-9l1-1 1-11z" fill="#080203"/>
<path transform="translate(943,635)" d="m0 0 10 1 7 6-1 5-4 5-5-1-9-7-2-2 1-6z" fill="#F2F4EB"/>
<path transform="translate(687,1118)" d="m0 0 2 1-3 5h3l1 4h10l13 5-1 2-6-2h-16l-10 4-3 1-2-2-11 11-2-1 12-12 7-8z" fill="#F3D468"/>
<path transform="translate(506,628)" d="m0 0 8 2 6 7v6l-2 1h-8l-9-7-1-4z" fill="#F6F4E7"/>
<path transform="translate(692,1157)" d="m0 0 4 4 1 8-10 11-4-2-2-4v-5z" fill="#F6DA6C"/>
<path transform="translate(711,1267)" d="m0 0h1v7l-6 16-7 10-10 10-5 4-2 3-10 5-10 2h-18l-5-1v-1l21-1 12-3 12-7 11-10 7-10 5-11z" fill="#F0CF66"/>
<path transform="translate(555,1270)" d="m0 0h3l-2 5-4 2-1 5-2 6 4 7 2 7 6 2 10 3 3 3-4-1-17-1-3-5-3-12-3-4v-6l10-9z" fill="#F4D86E"/>
<path transform="translate(820,1228)" d="m0 0h7l8 5v12l-1-4-12 1-5-5-1-3 1-4h3z" fill="#F3CD37"/>
<path transform="translate(668,1034)" d="m0 0h1v5h2l2 6 4 2 5 5 7 6 8 16 2 10v10h-1l-4-19-6-12-9-10-11-7-5-3z" fill="#F3D56A"/>
<path transform="translate(874,1304)" d="m0 0 1 2-7 9-13 10-2 1h-15l-13-5-14-11-1-3 4 2 8 6 9 5 7 2h12l12-6 7-6z" fill="#8D1A17"/>
<path transform="translate(671,1081)" d="m0 0 3 4 1 10-3-4h-2v2l-2 1 2 1-1 3v-2l-21 3v13h-1v-15h-2l-1 3h-2l1-5 13-4 11-2h5l-1-2z" fill="#2A060A"/>
<path transform="translate(778,1023)" d="m0 0 3 3 5 9 6 7-1 5-5-2-8-7v-2l-6-2-1-3z" fill="#F2EBCF"/>
<path transform="translate(650,1058)" d="m0 0 5 5 5 3 2 5-10 6-9 5-2-1 2-6 7-2h-6l2-5 4-1-1-3z" fill="#210509"/>
<path transform="translate(767,1333)" d="m0 0h12v1l-13 2-11 4-19 1-6 3-9-1-9-3h-19l2-2 8-1h10l7 2h14l1-1 17-1z" fill="#ec6"/>
<path transform="translate(670,1219)" d="m0 0h9l4 3 5 1 1 3 7 6 7 15 1 4v16l-6 16-5 6-2-1 7-12 3-9v-16l-5-13-6-8-11-7-9-3z" fill="#210509"/>
<path transform="translate(895,1286)" d="m0 0h1v11l-1 3 2 1-12 23-1-2-5 2-1 2-4 1 6-9 4-2 6-15z" fill="#260609"/>
<path transform="translate(894,1312)" d="m0 0 2 4 2 2 7 1 1-2-1 7-2 3h-9l-9-3 2-5 2-4z" fill="#F8DB66"/>
<path transform="translate(511,1260)" d="m0 0 1 2-22 10-33 14-23 11-5 3-4 5-1-2 2-5 24-12 26-11z" fill="#E3D67B"/>
<path transform="translate(781,1069)" d="m0 0h3v2l-10 5-8 9-6 14-3 14-1 19-2-3-1-6v-8l5-19 4-9 6-9 7-6z" fill="#EDC964"/>
<path transform="translate(795,1198)" d="m0 0 4 2 1 4-13 11-3 3-3-1v-12l9 2 2-4z" fill="#F6D96B"/>
<path transform="translate(814,1300)" d="m0 0h10l1 3-4 2 1 5 8 4 9 3 10 2v1h-14l-12-6-6-5-4-2z" fill="#0A0304"/>
<path transform="translate(627,1258)" d="m0 0 4 2 3 12v8l-5-1-4-6-1-8z" fill="#210509"/>
<path transform="translate(617,1130)" d="m0 0 14 1 11 3 7 4-1 2-7-1-13-3h-7l-4-3z" fill="#210509"/>
<path transform="translate(895,1274)" d="m0 0h1v12l-8 24-4 6-4 4-7 8-8 7-5 1 5-4 8-7 4-5 9-15 4-8 4-12z" fill="#8D1A17"/>
<path transform="translate(679,1259)" d="m0 0 4 5 1 1v10l-4 5-4-1v-9l2-10z" fill="#200408"/>
<path transform="translate(773,1229)" d="m0 0h2l-1 6-3 10h-2l-1-2h-2v-2l-3-1v-2l-5 2-9 1 2-2 15-5z" fill="#F1D067"/>
<path transform="translate(790,1306)" d="m0 0 5 5 9 10 9 8 11 5 15 3 2 1 11 1v1h-12l-7-2-11-2-17-9-10-11-5-8z" fill="#8D1A17"/>
<path transform="translate(818,1108)" d="m0 0 4 1 2 3 1 10 2 1-7 2h-7l3-2-1-3z" fill="#210509"/>
<path transform="translate(679,1212)" d="m0 0 5 2 11 9 7 7 6 10 4 13v9l-2-2-3-14-6-12-7-9-10-8-5-3z" fill="#F0D066"/>
<path transform="translate(641,1266)" d="m0 0 7 1 8 6v2l-2 1h-10l-4-4v-5z" fill="#210509"/>
<path transform="translate(766,1039)" d="m0 0 5 1 10 9 5 5-9-3-10-2-1-1z" fill="#F5D76A"/>
<path transform="translate(645,1097)" d="m0 0h2v21l2 1-4 2-3-3v-16z" fill="#030203"/>
<path transform="translate(844,1276)" d="m0 0 6 1 6 4 8 9 5 8-1 2-9-12-9-8-6-1-9 6-6 5-2-1 10-9z" fill="#8D1A17"/>
<path transform="translate(601,1263)" d="m0 0 3 1 1 5-1 9-2 3-4-1v-16z" fill="#2A0709"/>
<path transform="translate(642,1239)" d="m0 0 3 1-1 6-5 7h-5l-1-5 6-8z" fill="#210509"/>
<path transform="translate(658,1285)" d="m0 0 5 1 1 4-4 4-3 1h-7l1-5 4-4z" fill="#210509"/>
<path transform="translate(728,1023)" d="m0 0 5 5 3 8v9l-4 8-7 7-2 1h-7v-1l9-3 6-8 2-6-1-9-4-9z" fill="#EBC663"/>
<path transform="translate(673,1101)" d="m0 0 1 3-6 8-3 3h-2l-1 3-9 7-5 4h-12v-1l11-1 7-7 8-7 5-5z" fill="#8D1A17"/>
<path transform="translate(688,1248)" d="m0 0 4 2 4 7v7l-3 3-5-11z" fill="#1F0408"/>
<path transform="translate(798,1207)" d="m0 0 6 1-5 5-7 6-5 8-1-3 1-5 4-5 1-2h2l2-4z" fill="#210509"/>
<path transform="translate(654,1231)" d="m0 0h7l7 3 3 4v2l-6-1-4-2-8-2v-3z" fill="#210509"/>
<path transform="translate(660,1317)" d="m0 0h6l2 3-6 1h-25l-4-2h7l4-1z" fill="#2C070A"/>
<path transform="translate(691,1029)" d="m0 0h1l1 11 4 10 3 3v2l4 2 10 4v1l-8-1-6-4-8-9-3-13z" fill="#EDCA65"/>
<path transform="translate(662,1252)" d="m0 0 6 2-1 4-8 4-5-1 2-6z" fill="#210509"/>
<path transform="translate(716,1136)" d="m0 0 4 2 6 9 2 6v14l-5 10-1-3 3-7v-13l-4-10-5-6z" fill="#EECB65"/>
<path transform="translate(767,1333)" d="m0 0h12v1l-13 2-11 4h-21l1-2 17-1z" fill="#EBC763"/>
<path transform="translate(695,1164)" d="m0 0h2v5l-10 11-4-2 1-4 7-6 4-2z" fill="#F2F2E7"/>
<path transform="translate(718,934)" d="m0 0h5l4 4v2l-3-1-12 2-2 14h-1v-10l3-7z" fill="#F1D067"/>
<path transform="translate(656,1215)" d="m0 0h8v2l6 1v1h-11l-11 2-10 4h-3l5-4 8-4z" fill="#210509"/>
<path transform="translate(772,1118)" d="m0 0 2 3 1 5 9 3 2 1-1 5-6-1-5-5-3-7z" fill="#210509"/>
<path transform="translate(697,1179)" d="m0 0h2l1 2v11l-3-3h-7l-2 2-3-1 8-7z" fill="#EFCE67"/>
<path transform="translate(658,1052)" d="m0 0 8 2 10 7 7 10-1 2-8-10-8-5-12-4z" fill="#210509"/>
<path transform="translate(707,956)" d="m0 0 1 3-8 7-7 4 1 6 4 9v3h-2l-5-13-2-6 10-6 6-4z" fill="#EDC965"/>
<path transform="translate(854,1249)" d="m0 0h1l1 7 11 9 4 4 2 5-6-4-10-9-3-4z" fill="#200508"/>
<path transform="translate(904,1257)" d="m0 0 4 1 29 14 3 2-7-1-22-10-7-4z" fill="#EDCA66"/>
<path transform="translate(609,1203)" d="m0 0h2v2l-15 11-15 9v-3l11-7 12-8z" fill="#EFD977"/>
<path transform="translate(683,1144)" d="m0 0 5 2 1 4-9 10-1-3 1-5 2-6z" fill="#F5D76A"/>
<path transform="translate(816,1077)" d="m0 0 5 1 9 9 4 5-1 2-6-4-10-10z" fill="#070203"/>
<path transform="translate(820,1310)" d="m0 0 5 2 14 5 10 2v1h-14l-12-6z" fill="#060203"/>
<path transform="translate(851,1243)" d="m0 0 2 1 2 13 7 8 11 9h-3l-8-6-7-6-3-5z" fill="#8D1A17"/>
<path transform="translate(572,1248)" d="m0 0 2 1-5 5-7 5-3 10-3 2 1-8 5-9z" fill="#F2D369"/>
<path transform="translate(813,1215)" d="m0 0 3 2v3h-2l-1 3-6 4-7 11-3 3 2-6 6-10 5-6 3-2z" fill="#8D1A17"/>
<path transform="translate(788,1088)" d="m0 0 3 1v6l-4 4h-4l-1-5 4-5z" fill="#210509"/>
<path transform="translate(579,1223)" d="m0 0v3l-23 13-7 3v-2l25-14z" fill="#ECD571"/>
<path transform="translate(799,1135)" d="m0 0h1v7l-7 6-4 7-1-3 6-11z" fill="#210509"/>
<path transform="translate(623,1283)" d="m0 0 6 2 3 4v5h-3l-5-5z" fill="#210509"/>
<path transform="translate(780,1109)" d="m0 0h5l2 3v6l-5 1-2-2z" fill="#210509"/>
<path transform="translate(448,1287)" d="m0 0v3l-19 10-4 5-1-2 2-5z" fill="#F1DC87"/>
<path transform="translate(781,1069)" d="m0 0h3v2l-10 5-8 9-2 3-2-1 6-9 7-6z" fill="#F0CF68"/>
<path transform="translate(671,1167)" d="m0 0h1l3 9 2 4v5l-1-2h-2l-2-5-4-4 1-6z" fill="#F5D767"/>
<path transform="translate(580,1314)" d="m0 0 4 2 3 1h16l-3 3-12 1-5-3-3-2z" fill="#F2D265"/>
<path transform="translate(597,1280)" d="m0 0h2l2 11 5 10 2 5-5-5-3-5-3-10z" fill="#EFCE66"/>
<path transform="translate(755,1184)" d="m0 0h8l3 2-14 2-11 5 2-4 8-4z" fill="#F3D469"/>
<path transform="translate(799,1107)" d="m0 0 5 1-1 8-4 1-1-1v-8z" fill="#210509"/>
<path transform="translate(660,1321)" d="m0 0h7l-2 2-3 1h-18l-5-1v-1z" fill="#FCE46D"/>
<path transform="translate(800,1089)" d="m0 0h6l3 3-1 4h-5l-3-3z" fill="#210509"/>
<path transform="translate(665,1337)" d="m0 0 6 2 1 1 15 1v2l-13 1-9-5z" fill="#F0CF66"/>
<path transform="translate(755,1111)" d="m0 0h1v21l-2-3-1-6v-8z" fill="#F3D469"/>
<path transform="translate(804,1208)" d="m0 0 5 2 1 2-6-1-8 7-7 6 2-5 10-9z" fill="#921C18"/>
<path transform="translate(822,1223)" d="m0 0 9 6 1 2-5-2h-6-3l-2-2z" fill="#EFCC5F"/>
<path transform="translate(761 1e3)" d="m0 0 3 2-7 4-5 5-4 5v-6l8-7z" fill="#EDCB65"/>
<path transform="translate(710,1032)" d="m0 0 3 1-2 1 5 1-2 6h-2l-2 3v-2l-2-1 1-3v-5z" fill="#200408"/>
<path transform="translate(433,1170)" d="m0 0h4v2l-10 4h-3l-2-1v-2z" fill="#EDDB7E"/>
<path transform="translate(697,998)" d="m0 0 1 4-3 7-2 3h-2l-1 3-6 2v-2l5-3 5-6z" fill="#EFCE63"/>
<path transform="translate(627,1187)" d="m0 0h2l-2 4-10 9-5 3 2-4z" fill="#EFD26C"/>
<path transform="translate(617,1127)" d="m0 0h8l9 2 4 2-14-1-7-1z" fill="#CF9757"/>
<path transform="translate(841,1108)" d="m0 0 1 4h2l1 9-4 1z" fill="#EED26C"/>
<path transform="translate(794,1340)" d="m0 0 8 2h7l1-2v4l-5 2-10-4z" fill="#EECB64"/>
<path transform="translate(695,1074)" d="m0 0h2l2 10v10h-1l-3-15z" fill="#F2D269"/>
<path transform="translate(691,1029)" d="m0 0h1l1 11 1 6-3-1-2-12z" fill="#F5D65D"/>
<path transform="translate(805,1040)" d="m0 0 1 2 4 2 9 7v3l-6-5-5-2-3-4z" fill="#EBC761"/>
<path transform="translate(778,1023)" d="m0 0 3 3 2 5-5-1-4-2z" fill="#E8D983"/>
<path transform="translate(709,1015)" d="m0 0h8v1l-9 2-11 5 2-4 6-3z" fill="#F0CF65"/>
<path transform="translate(676,1316)" d="m0 0 2 1-4 4-7 1-5-1v-1l10-2z" fill="#EDC963"/>
<path transform="translate(848,1284)" d="m0 0 9 6 1 4-10-6v-2l-3-1z" fill="#0A0204"/>
<path transform="translate(730,941)" d="m0 0h10l4 2 3 5v2h-2l-3-4v-2l-12-2z" fill="#E6BE61"/>
<path transform="translate(860,1295)" d="m0 0 4 2 3 5-1 5-3-4-3-5z" fill="#0E0304"/>
<path transform="translate(647,1067)" d="m0 0 4 1 1 3-4 2h-4l2-5z" fill="#E6CB72"/>
<path transform="translate(660,1148)" d="m0 0 3 1 1 13-2-2-3-8z" fill="#EFCD66"/>
<path transform="translate(672,1090)" d="m0 0 2 2-1 5-3 1v-3h-5l3-2h2v-2z" fill="#030203"/>
<path transform="translate(703,1337)" d="m0 0h8v1l-7 2h-11l2-2z" fill="#F4D668"/>
<path transform="translate(659,1177)" d="m0 0 1 2-6 10-5 4 2-4z" fill="#EBC663"/>
<path transform="translate(924,1268)" d="m0 0 7 1 9 4v1l-7-1-9-4z" fill="#EAC665"/>
<path transform="translate(559,1259)" d="m0 0h2l-2 10-3 2 1-8z" fill="#EECB67"/>
<path transform="translate(999,1301)" d="m0 0 3 1 2 6-1 4v-2h-2l-2-5z" fill="#ECF1EE"/>
<path transform="translate(709,1248)" d="m0 0h2l1 5v9l-2-2z" fill="#EDCB67"/>
<path transform="translate(728,1023)" d="m0 0 5 5 2 5-1 3-3-5-3-6z" fill="#F2D267"/>
<path transform="translate(842,1238)" d="m0 0 4 1-3 1-4 12-2-4z" fill="#210509"/>
</svg>
